<?xml version="1.0" standalone="no"?>
<!DOCTYPE svg PUBLIC "-//W3C//DTD SVG 20010904//EN"
 "http://www.w3.org/TR/2001/REC-SVG-20010904/DTD/svg10.dtd">
<svg version="1.0" xmlns="http://www.w3.org/2000/svg"
 width="1290.000000pt" height="1290.000000pt" viewBox="0 0 1290.000000 1290.000000"
 preserveAspectRatio="xMidYMid meet">
<metadata>
Created by potrace 1.14, written by Peter Selinger 2001-2017
</metadata>
<g transform="translate(0.000000,1290.000000) scale(0.100000,-0.100000)"
fill="#000000" stroke="none">
<path d="M5820 12781 c-30 -11 -91 -29 -135 -41 -44 -11 -101 -29 -127 -40
-36 -15 -70 -20 -147 -20 -56 0 -103 -4 -106 -10 -3 -5 -22 -10 -41 -10 -19 0
-51 -9 -71 -20 -21 -11 -52 -20 -70 -20 -20 0 -40 -8 -50 -19 -10 -10 -34 -36
-53 -56 l-35 -37 -82 6 -82 6 -51 -45 c-47 -42 -55 -45 -105 -45 -30 0 -55 5
-55 10 0 6 -11 10 -25 10 -16 0 -34 -13 -56 -40 -23 -28 -40 -40 -58 -40 -22
0 -36 -14 -80 -82 -79 -120 -87 -128 -143 -128 -46 0 -48 1 -48 28 0 23 -6 30
-35 41 l-35 12 0 90 c0 57 -4 88 -10 84 -5 -3 -17 -2 -27 3 -22 13 -30 4 -82
-103 -47 -94 -91 -168 -103 -173 -5 -2 -8 -9 -8 -16 0 -20 -31 -78 -54 -102
-12 -12 -36 -24 -54 -28 -45 -8 -82 -52 -82 -96 0 -18 -7 -20 -54 -20 l-53 0
-7 61 c-3 34 -6 84 -6 111 0 46 -1 48 -20 38 -11 -6 -18 -15 -15 -21 4 -5 -3
-9 -15 -9 -12 0 -25 -10 -32 -25 -6 -14 -15 -25 -19 -25 -4 0 -9 -15 -11 -32
-3 -31 -6 -33 -45 -36 -24 -2 -43 -8 -43 -15 0 -8 -3 -8 -12 1 -29 29 -38 13
-38 -66 0 -69 -3 -81 -23 -100 -16 -15 -36 -22 -65 -22 -35 0 -44 4 -56 28
-13 26 -17 27 -80 24 l-65 -4 -3 -71 -3 -72 -52 -3 c-47 -3 -56 0 -80 25 -14
15 -23 22 -19 16 4 -7 3 -13 -3 -13 -5 0 -11 6 -14 13 -3 8 -13 3 -30 -15 -14
-16 -32 -28 -38 -28 -7 0 -33 -17 -58 -38 -25 -21 -59 -42 -74 -46 -16 -4 -51
-29 -78 -56 -28 -28 -54 -50 -59 -50 -15 0 -40 -43 -40 -68 0 -12 -7 -25 -15
-28 -8 -4 -15 -12 -15 -20 0 -8 -4 -14 -9 -14 -5 0 -16 -18 -25 -41 -21 -51
-43 -74 -89 -94 -20 -8 -37 -19 -37 -24 0 -5 -6 -16 -13 -23 -54 -55 -67 -85
-67 -151 0 -115 -42 -178 -117 -179 -13 0 -23 -4 -23 -7 0 -15 25 -31 47 -31
21 0 23 -5 23 -49 0 -50 -9 -61 -50 -61 -18 0 -30 -19 -30 -45 0 -8 17 -16 40
-20 39 -7 40 -8 40 -46 0 -37 -2 -39 -30 -39 -27 0 -30 -3 -30 -31 0 -20 -8
-39 -21 -50 -21 -18 -18 -39 6 -39 8 0 17 -5 20 -10 4 -7 -3 -8 -21 -4 -23 6
-26 4 -21 -10 4 -10 1 -19 -8 -22 -10 -4 -15 -20 -15 -48 0 -41 9 -56 55 -94
10 -9 15 -30 15 -67 l0 -55 -45 0 c-43 0 -45 -1 -45 -30 0 -16 5 -30 10 -30 6
0 10 -9 10 -19 0 -11 11 -32 25 -47 21 -23 25 -37 25 -90 0 -43 -4 -65 -14
-71 -8 -4 -21 -30 -29 -58 -8 -27 -19 -59 -23 -69 -5 -14 -4 -17 4 -12 15 9
15 1 0 -23 -9 -15 -9 -28 0 -59 7 -22 12 -89 12 -151 0 -72 4 -111 11 -111 14
0 39 -25 39 -39 0 -6 5 -11 10 -11 6 0 10 -39 10 -97 0 -78 -4 -105 -21 -140
-18 -37 -20 -55 -15 -111 15 -153 18 -282 7 -330 -13 -63 4 -614 21 -652 6
-14 13 -95 15 -180 4 -146 17 -235 33 -225 15 9 60 -98 66 -153 9 -92 24 -142
44 -142 15 0 18 -11 22 -67 2 -39 9 -68 16 -71 7 -2 12 -10 12 -18 0 -8 7 -25
16 -39 9 -14 14 -39 12 -62 -3 -37 -4 -38 -45 -41 -41 -3 -56 5 -108 54 -13
14 -133 34 -198 34 -39 0 -49 -5 -76 -35 -17 -19 -35 -35 -41 -35 -5 0 -10 -6
-10 -14 0 -8 -8 -21 -18 -28 -32 -24 -44 -69 -43 -163 1 -49 6 -106 12 -125
20 -65 31 -234 36 -532 2 -164 8 -298 12 -298 18 0 24 -53 31 -270 8 -228 22
-388 39 -425 5 -11 17 -45 27 -75 9 -30 20 -59 24 -65 4 -5 10 -23 13 -40 13
-70 29 -125 37 -125 5 0 12 -15 15 -32 4 -18 11 -37 15 -43 5 -5 18 -41 30
-80 28 -87 97 -235 110 -235 6 0 10 -6 10 -13 0 -8 11 -20 25 -27 14 -7 25
-19 25 -27 0 -7 3 -13 8 -13 4 0 27 -18 52 -40 25 -22 55 -43 68 -46 12 -4 22
-9 22 -13 0 -4 21 -18 48 -31 26 -12 55 -30 66 -39 10 -9 20 -15 22 -14 6 4
33 -7 94 -35 30 -14 60 -26 65 -27 11 0 19 -93 30 -340 4 -93 11 -177 15 -186
5 -8 12 -51 15 -95 4 -43 10 -83 13 -89 4 -5 7 -19 8 -30 2 -21 36 -112 59
-155 17 -32 52 -127 61 -163 4 -16 24 -62 45 -102 22 -40 39 -79 39 -86 0 -7
11 -27 25 -45 14 -18 25 -37 25 -42 0 -5 9 -17 20 -27 11 -10 18 -20 16 -22
-2 -3 11 -21 31 -41 19 -21 51 -62 71 -92 20 -30 40 -56 44 -58 5 -2 8 -12 8
-22 0 -10 7 -20 15 -24 8 -3 15 -14 15 -24 0 -11 15 -39 32 -63 43 -58 61 -92
45 -83 -7 4 0 -6 14 -22 14 -16 42 -51 62 -79 20 -27 48 -61 62 -74 14 -12 22
-28 18 -34 -3 -6 -1 -7 5 -3 6 4 19 -3 29 -14 28 -33 75 -81 126 -127 26 -24
43 -43 39 -43 -4 0 -2 -4 3 -8 6 -4 28 -34 50 -67 68 -101 114 -160 187 -240
27 -29 47 -54 45 -56 -1 -2 -1 -3 1 -3 2 1 22 -17 45 -40 23 -22 68 -63 99
-90 30 -27 73 -71 94 -99 56 -74 174 -187 194 -187 5 0 12 -9 15 -20 3 -11 11
-20 16 -20 10 0 17 -5 63 -45 16 -14 37 -25 47 -25 11 0 19 -4 19 -10 0 -5 7
-10 15 -10 8 0 25 -14 37 -31 13 -17 52 -50 88 -73 36 -24 78 -55 93 -70 15
-14 35 -26 44 -26 8 0 30 -15 49 -34 46 -46 119 -91 195 -122 83 -32 111 -44
129 -55 8 -5 29 -16 45 -25 44 -23 71 -38 86 -51 8 -6 46 -18 84 -27 90 -22
137 -34 208 -57 31 -11 75 -19 96 -19 21 0 52 -7 67 -15 17 -9 56 -15 96 -15
37 0 69 -4 73 -9 3 -5 31 -13 63 -17 31 -3 62 -10 67 -14 6 -4 42 -11 81 -15
40 -4 85 -14 100 -22 55 -29 530 -32 599 -4 37 15 129 41 185 51 30 6 75 16
100 21 25 6 55 11 67 13 12 1 28 7 35 13 7 6 29 18 48 28 18 10 40 24 48 31 7
8 17 14 21 14 4 0 16 8 27 18 10 10 44 31 74 46 30 15 62 31 70 35 60 31 83
41 91 41 14 0 150 89 182 118 15 14 27 22 27 16 0 -5 6 -2 13 7 15 19 114 90
147 106 14 6 43 17 64 24 22 6 52 24 67 40 29 30 164 129 177 129 4 0 30 22
58 48 29 26 67 58 85 72 18 14 100 90 183 170 193 188 218 213 237 236 8 10
31 30 50 44 56 41 213 210 237 256 7 13 17 24 22 24 6 0 10 7 10 15 0 8 4 15
8 15 4 0 16 15 27 33 10 17 35 49 54 70 19 21 47 55 61 76 14 21 40 53 58 72
17 18 32 38 32 45 0 7 25 44 55 82 30 39 55 75 55 81 0 5 6 14 13 18 11 7 19
23 51 93 6 14 13 27 16 30 12 12 30 51 30 65 0 8 5 15 10 15 6 0 10 6 10 13 0
7 18 49 40 93 22 43 40 84 40 90 0 6 7 17 16 25 10 8 13 21 9 36 -3 13 -1 23
5 23 5 0 10 12 10 26 0 14 7 32 16 41 8 9 13 22 9 31 -3 8 -1 20 3 26 5 6 19
56 32 111 12 55 26 105 30 110 4 6 10 37 13 70 4 34 13 76 20 95 8 19 12 41
10 48 -3 6 -1 12 4 12 4 0 10 109 11 243 3 142 8 247 14 254 17 21 113 62 240
104 62 20 75 28 229 138 101 73 249 211 249 233 0 6 12 22 26 35 58 53 154
383 154 526 0 67 4 87 25 122 13 23 33 83 44 133 11 50 34 123 50 161 l31 69
0 254 c0 275 8 339 54 442 24 53 27 74 32 230 6 170 6 171 -18 199 -13 15 -34
27 -46 27 -22 0 -62 32 -62 50 0 6 -11 10 -24 10 -14 0 -28 5 -31 10 -3 6 -52
10 -111 10 l-104 0 0 41 c0 31 8 51 30 79 49 62 86 142 100 216 13 73 27 122
67 244 47 139 58 352 34 630 -11 126 -11 205 -1 425 16 350 25 486 34 507 4 9
1 31 -7 50 -8 18 -20 53 -27 78 -8 25 -18 50 -24 55 -29 26 -40 79 -51 235 -6
91 -17 174 -23 185 -18 33 -62 219 -62 263 0 27 -5 42 -12 42 -10 0 -10 2 0 8
10 7 9 17 -3 51 -8 24 -15 52 -15 62 0 10 -5 30 -12 46 -6 15 -10 36 -9 47 2
10 -3 47 -10 82 -12 61 -23 78 -31 52 -2 -6 -5 6 -5 28 -1 21 -6 73 -12 114
-5 41 -10 80 -10 87 -1 7 -19 31 -41 53 -22 22 -40 43 -40 46 0 3 -6 11 -12
18 -7 7 -33 37 -58 67 -25 30 -73 82 -107 117 -35 34 -63 66 -63 70 0 5 -11
14 -24 22 -14 7 -22 18 -19 25 5 14 -30 39 -40 29 -3 -3 -4 2 -1 13 5 17 -7
35 -67 107 -51 62 -69 95 -69 128 0 22 -3 29 -9 19 -5 -7 -14 -10 -20 -6 -9 5
-7 11 5 20 15 10 15 13 3 21 -8 5 -25 24 -38 42 -12 17 -31 32 -42 32 -10 0
-19 4 -19 8 0 5 -18 14 -40 21 -22 6 -40 16 -40 21 0 13 6 12 33 -1 19 -9 18
-7 -3 10 -14 11 -31 19 -38 16 -9 -3 -12 1 -8 13 4 12 -7 26 -34 46 -22 17
-40 33 -40 38 0 4 -7 8 -15 8 -8 0 -15 6 -15 14 0 7 -18 30 -41 50 -32 30 -43
35 -55 25 -9 -7 -14 -8 -14 -1 0 6 5 12 12 14 6 2 8 10 4 17 -5 7 -14 10 -22
7 -9 -3 -14 0 -12 7 1 6 -20 34 -47 61 -28 27 -61 63 -74 80 -13 17 -21 23
-17 13 5 -15 2 -17 -17 -12 -29 9 -46 26 -18 18 36 -9 25 22 -24 72 -25 25
-50 45 -55 45 -5 0 -16 10 -25 23 -8 13 -48 40 -89 61 -41 21 -77 45 -80 52
-3 8 -17 19 -32 24 -15 6 -24 13 -21 16 8 8 -9 25 -55 53 -21 12 -38 27 -38
32 0 5 -9 9 -20 9 -24 0 -70 21 -70 32 0 4 -9 8 -20 8 -13 0 -18 5 -14 15 4 9
0 16 -7 17 -8 0 -19 2 -24 2 -6 1 -22 11 -35 24 -13 12 -34 22 -47 22 -14 0
-23 6 -23 15 0 8 -7 15 -15 15 -9 0 -21 5 -28 10 -45 38 -107 79 -123 82 -10
2 -27 13 -37 26 -10 12 -29 22 -42 22 -14 0 -29 9 -35 21 -9 16 -19 19 -48 17
-27 -2 -42 2 -55 17 -14 15 -20 17 -26 6 -7 -11 -13 -10 -32 1 -13 7 -28 19
-32 26 -4 6 -16 12 -25 12 -14 0 -15 2 -2 10 11 7 9 11 -13 19 -16 6 -36 11
-45 11 -14 0 -15 -2 -2 -10 24 -15 6 -21 -23 -7 -15 6 -25 18 -22 24 4 13 -44
44 -67 42 -7 0 2 -7 20 -15 28 -12 32 -17 22 -29 -17 -20 -27 -19 -35 5 -5 15
-15 20 -41 20 -28 0 -36 5 -44 25 -11 28 -51 47 -90 43 -14 -1 -30 0 -35 3 -6
3 -30 11 -55 18 -64 19 -90 32 -90 48 0 7 -5 13 -11 13 -5 0 -7 -4 -4 -10 3
-5 -1 -10 -9 -10 -9 0 -16 7 -16 15 0 17 -12 19 -26 5 -7 -7 -19 -7 -35 -1
-24 10 -24 10 -1 10 12 1 22 6 22 12 0 6 -6 9 -14 6 -8 -3 -16 -1 -18 4 -2 6
-34 11 -71 11 -37 1 -63 4 -57 8 15 9 -55 38 -110 45 -25 4 -53 9 -62 11 -13
4 -16 1 -12 -10 3 -9 1 -16 -5 -16 -6 0 -11 4 -11 10 0 11 -85 52 -103 49 -6
-1 -19 1 -27 4 -28 12 -172 27 -253 27 -45 0 -131 4 -192 9 -60 6 -290 12
-510 16 -381 5 -403 5 -455 -14z m1320 -41 c0 -5 -7 -10 -16 -10 -8 0 -12 5
-9 10 3 6 10 10 16 10 5 0 9 -4 9 -10z m340 -80 c0 -5 -9 -10 -20 -10 -11 0
-20 5 -20 10 0 6 9 10 20 10 11 0 20 -4 20 -10z m25 0 c3 -5 1 -10 -4 -10 -6
0 -11 5 -11 10 0 6 2 10 4 10 3 0 8 -4 11 -10z m122 -36 c-3 -3 -12 -4 -19 -1
-8 3 -5 6 6 6 11 1 17 -2 13 -5z m47 -9 c-4 -8 -12 -15 -20 -15 -8 0 -14 7
-14 15 0 8 9 15 20 15 13 0 18 -5 14 -15z m851 -315 c3 -6 -4 -9 -19 -8 -13 1
-22 6 -20 10 7 11 32 10 39 -2z m2135 -2060 c0 -5 -7 -10 -15 -10 -8 0 -15 5
-15 10 0 6 7 10 15 10 8 0 15 -4 15 -10z"/>
<path d="M7830 12580 c0 -5 7 -10 16 -10 8 0 12 5 9 10 -3 6 -10 10 -16 10 -5
0 -9 -4 -9 -10z"/>
<path d="M7884 12555 c11 -8 22 -12 25 -9 6 6 -19 24 -34 24 -5 -1 -1 -7 9
-15z"/>
<path d="M8090 12480 c0 -7 24 -20 36 -20 13 0 1 19 -16 23 -11 3 -20 2 -20
-3z"/>
<path d="M8455 12340 c3 -5 11 -10 16 -10 6 0 7 5 4 10 -3 6 -11 10 -16 10 -6
0 -7 -4 -4 -10z"/>
</g>
</svg>
